PathFileType	4	(X/Y/Z)	C:\Users\Basilio\Documents\Thesis Gigler\squatting_fais\c3dfiles\076\SLS_back_pre5\markers_experimental.trc
DataRate	CameraRate	NumFrames	NumMarkers	Units	OrigDataRate	OrigDataStartFrame	OrigNumFrames
200.000000	200.000000	4	61	mm	200.000000	1380	1578
Frame#	Time	FHD			LBHD			RBHD			C7			T10			CLAV			LSHO			LUUPA			LMUPA			LDUPA			LLEP			LMEP			LRAD			LUL			LRFIN			RSHO			RUPA1			RMUPA			RDUPA			RLEP			RMEP			RRAD			RUL			RUFIN			LASI			RASI			USACR			LSACR			RSACR			LTHI1			LTHI2			LTHI3			LTHI4			LLFC			LMFC			LTIB1			LTIB2			LTIB3			LTIB4			LLMAL			LMMAL			LHEE			LMT1			LMT2			LMT5			RTHI			RTHI2			RTHI3			RTHI4			RLFC			RMFC			RTIB1			RTIB2			RTIB3			RTIB4			RLMAL			RMMAL			RHEE			RMT1			RMT2			RMT5			
		X1	Y1	Z1	X2	Y2	Z2	X3	Y3	Z3	X4	Y4	Z4	X5	Y5	Z5	X6	Y6	Z6	X7	Y7	Z7	X8	Y8	Z8	X9	Y9	Z9	X10	Y10	Z10	X11	Y11	Z11	X12	Y12	Z12	X13	Y13	Z13	X14	Y14	Z14	X15	Y15	Z15	X16	Y16	Z16	X17	Y17	Z17	X18	Y18	Z18	X19	Y19	Z19	X20	Y20	Z20	X21	Y21	Z21	X22	Y22	Z22	X23	Y23	Z23	X24	Y24	Z24	X25	Y25	Z25	X26	Y26	Z26	X27	Y27	Z27	X28	Y28	Z28	X29	Y29	Z29	X30	Y30	Z30	X31	Y31	Z31	X32	Y32	Z32	X33	Y33	Z33	X34	Y34	Z34	X35	Y35	Z35	X36	Y36	Z36	X37	Y37	Z37	X38	Y38	Z38	X39	Y39	Z39	X40	Y40	Z40	X41	Y41	Z41	X42	Y42	Z42	X43	Y43	Z43	X44	Y44	Z44	X45	Y45	Z45	X46	Y46	Z46	X47	Y47	Z47	X48	Y48	Z48	X49	Y49	Z49	X50	Y50	Z50	X51	Y51	Z51	X52	Y52	Z52	X53	Y53	Z53	X54	Y54	Z54	X55	Y55	Z55	X56	Y56	Z56	X57	Y57	Z57	X58	Y58	Z58	X59	Y59	Z59	X60	Y60	Z60	X61	Y61	Z61	

1381	6.9	-167.768798828125	1619.12939453125	-866.0351562500002	-274.5439758300782	1577.94482421875	-1009.680541992188	-310.7680053710938	1567.877807617188	-862.5166625976565	-353.9757385253907	1449.025634765625	-946.221618652344	-379.2563476562501	1127.612426757813	-944.213073730469	-221.0667724609376	1368.752563476563	-926.001647949219	-276.0513000488282	1386.21240234375	-1112.250732421875	-300.3033142089844	1193.770874023438	-1185.104614257813	-270.2906494140626	1161.431518554688	-1162.392822265625	-304.3179016113282	1126.341186523438	-1199.278198242188	-321.5617675781251	1070.581787109375	-1207.482299804688	-364.3943481445313	1056.702270507813	-1137.172241210938	-215.0397338867188	856.0333251953127	-1130.232055664063	-240.2578735351563	836.6687622070315	-1187.558349609375	-185.9913940429688	771.879821777344	-1121.348266601563	-315.1007995605469	1386.196044921875	-766.0848999023439	-391.4134216308595	1204.268920898438	-696.8959960937501	-352.6881103515626	1176.443115234375	-681.9676513671876	-397.7536010742189	1135.122802734375	-684.0816650390626	-389.5484924316407	1066.312133789063	-669.7478027343751	-386.5396118164064	1048.173461914063	-750.9233398437501	-221.9326171875001	880.2370605468752	-688.2962646484376	-268.4708251953126	859.5618896484377	-644.9381713867189	-179.0125885009766	818.2100830078127	-660.4222412109376	-199.9395446777344	946.9463500976565	-1026.012817382813	-223.6544799804688	947.3735961914065	-809.633239746094	-377.5482482910157	1020.125610351563	-936.6613769531252	-382.8894653320313	991.9006958007815	-964.9410400390627	-388.5096740722657	991.0386962890627	-909.005554199219	-290.6555480957032	796.3204345703127	-1098.374877929688	-273.5413208007813	713.8687744140626	-1092.591674804688	-228.6780853271485	710.5840454101564	-1078.147705078125	-311.4261474609376	666.3055419921876	-1083.4755859375	-336.0777282714844	506.6679077148439	-1058.986328125	-303.4839172363282	495.9729003906251	-944.4345703125002	-310.8503417968751	360.4195861816407	-996.562194824219	-337.6249389648438	310.2356567382813	-1064.676391601563	-307.6308898925782	311.4414062500001	-1029.36083984375	-322.3098449707032	233.5361480712891	-998.8858642578127	-384.5013122558595	109.202133178711	-1054.227905273438	-353.9280090332032	119.8754196166992	-975.0300292968752	-441.535369873047	97.12012481689456	-1007.238525390625	-239.6718750000001	53.76707077026369	-994.2360839843752	-234.9344024658204	49.97497177124025	-1032.897338867188	-259.7361145019532	43.96752548217774	-1082.935913085938	-338.5316162109376	705.3875732421876	-754.5961914062501	-305.7265319824219	647.6638793945314	-742.8812866210939	-271.0688476562501	647.9547119140626	-744.2873535156251	-333.6790161132813	571.4660644531251	-759.6090087890626	-339.4121398925782	511.062469482422	-762.7717285156251	-288.3498535156251	496.8530578613282	-870.2134399414065	-297.4561462402344	379.6450500488282	-765.8812255859376	-368.2463989257813	298.5812683105469	-749.8113403320314	-321.2937927246094	296.4926757812501	-750.1682739257814	-299.4060668945313	249.8303833007813	-776.5135498046877	-354.4638061523438	105.9351959228516	-747.4384765625001	-327.1956481933594	118.8807830810547	-827.268493652344	-408.9339599609376	89.88352966308595	-790.3576660156252	-209.6574707031251	52.58962631225587	-815.3204345703127	-202.9355468750001	50.73822021484376	-769.8342895507815	-230.313461303711	33.68867111206055	-715.5359497070314	
1382	6.905	-167.2701873779297	1619.057006835938	-865.0700683593752	-274.1647033691407	1578.04931640625	-1008.645202636719	-310.2724914550782	1567.867797851563	-861.4322509765627	-353.6743774414063	1449.116943359375	-945.156433105469	-379.1442565917969	1127.514770507813	-943.2302856445315	-220.5160064697266	1368.67724609375	-924.9418945312502	-276.0394287109376	1386.362426757813	-1111.07666015625	-301.4948120117188	1194.437866210938	-1184.750366210938	-271.4135437011719	1161.768798828125	-1162.153076171875	-305.7510986328126	1126.873046875	-1198.94580078125	-323.1956176757813	1071.307250976563	-1207.446655273438	-365.7802124023438	1057.61572265625	-1136.909057617188	-216.4193267822266	856.6668090820315	-1130.72412109375	-242.3049621582032	837.250671386719	-1188.00927734375	-187.7295379638672	772.442321777344	-1122.504150390625	-314.8170776367188	1386.224487304688	-764.9786376953126	-391.5093994140626	1204.746948242188	-695.7615966796876	-352.9955749511719	1176.702514648438	-680.7064819335939	-398.0865783691407	1135.739135742188	-682.6166381835939	-390.1294555664064	1066.931396484375	-668.1634521484376	-387.4424133300782	1048.524780273438	-749.1499633789064	-222.5419006347657	880.7786254882815	-687.2436523437501	-268.8588562011719	860.2464599609377	-643.5198364257814	-179.4874572753907	818.570251464844	-659.5595703125001	-199.9942932128907	946.9324340820315	-1025.217407226563	-223.4296112060547	947.3880615234377	-808.783142089844	-377.4687805175782	1020.077331542969	-935.7529296875002	-382.5277709960938	991.7965087890627	-963.9208984375002	-388.2882690429689	991.0186767578127	-908.0606689453127	-290.5883789062501	796.197448730469	-1097.538208007813	-273.5029602050782	713.9219970703126	-1091.892211914063	-228.9127807617188	710.7725219726564	-1077.437133789063	-310.5339355468751	666.3273315429689	-1082.555786132813	-336.0121154785157	506.6701965332032	-1058.357421875	-303.5519409179688	495.8383789062501	-943.9025878906252	-310.7524108886719	360.3862609863282	-996.2671508789065	-337.4060974121094	310.3131408691407	-1064.407470703125	-307.5752868652344	311.4719848632813	-1029.146118164063	-322.3123474121094	233.5073242187501	-998.690124511719	-384.4497070312501	109.2472152709961	-1054.182495117188	-353.8963012695313	119.8483428955078	-974.966979980469	-441.4907531738282	97.19386291503909	-1007.206909179688	-239.6788787841797	53.73684310913087	-994.2295532226565	-234.8956451416016	50.00190353393556	-1032.883544921875	-259.7478332519532	43.95197296142579	-1082.888671875	-338.0915222167969	705.3666992187501	-753.7563476562501	-305.2406616210938	647.5727539062501	-742.4413452148439	-270.5583496093751	647.9548339843751	-743.7565307617189	-333.1878356933594	571.4642333984376	-758.9985351562501	-338.9314270019532	511.0904235839845	-762.2108764648439	-288.0559387207032	496.9683532714845	-869.680114746094	-296.8666076660157	379.4244689941407	-765.4527587890626	-367.9297180175782	298.5002441406251	-749.3671875000001	-321.0118713378907	296.3999938964844	-749.8876953125001	-299.1809997558594	249.7713165283204	-776.4028320312502	-354.5004577636719	105.9150314331055	-747.4439697265626	-327.3491516113282	118.9347076416016	-827.2861328125002	-408.9337158203126	89.93952941894533	-790.3612060546877	-209.6528015136719	52.58800125122072	-815.3206176757815	-202.9839782714844	50.69095993041994	-769.8635864257815	-230.2988586425782	33.67280197143555	-715.5534667968751	
1383	6.91	-166.822250366211	1619.14453125	-864.0750122070315	-273.6661682128907	1577.990234375	-1007.783203125	-309.8666076660157	1567.991577148438	-860.4921875000002	-353.3980712890626	1449.227661132813	-944.0035400390627	-379.0858459472657	1127.40625	-942.258239746094	-220.1828765869141	1368.652465820313	-923.926940917969	-275.9615173339844	1386.488525390625	-1110.108032226563	-302.6666564941407	1195.089111328125	-1184.260131835938	-272.4346618652344	1162.26318359375	-1161.937255859375	-307.6604919433594	1127.85791015625	-1198.898315429688	-324.7860107421876	1072.058837890625	-1207.372192382813	-366.9708251953126	1058.210327148438	-1136.604736328125	-217.7496032714844	857.1096191406252	-1131.337646484375	-243.7202606201172	837.8465576171877	-1188.439086914063	-189.551025390625	773.2366943359377	-1123.847412109375	-314.4049072265626	1386.313110351563	-764.0647583007814	-391.5469665527345	1205.328369140625	-694.4929809570314	-353.0955810546876	1177.214965820313	-679.2449340820314	-398.4503784179689	1136.322509765625	-681.2894287109376	-390.7326049804689	1067.461059570313	-666.5044555664064	-387.8060302734376	1049.077392578125	-747.5784301757814	-223.3961181640626	881.2825317382815	-686.1804809570314	-269.1683349609376	860.8521728515627	-641.9765625000001	-179.9664611816407	818.9297485351565	-658.5537109375001	-199.9412841796876	946.9146728515627	-1024.405029296875	-223.1149902343751	947.3850708007815	-807.930603027344	-377.2879333496094	1020.222961425781	-934.8164672851565	-382.1816406250001	991.785827636719	-963.0535888671877	-388.1898498535157	991.0524902343752	-907.170104980469	-290.6134643554688	796.1660766601565	-1096.8515625	-273.5341186523438	714.0261840820314	-1091.286376953125	-228.2743072509766	711.1802978515626	-1076.629272460938	-310.6796569824219	666.3173828125001	-1082.067626953125	-335.9263610839844	506.7516479492189	-1057.905639648438	-303.2030029296876	495.878143310547	-943.4346923828127	-310.6182861328126	360.3316955566407	-995.9332275390627	-337.4147644042969	310.3354187011719	-1064.057250976563	-307.4873352050782	311.5152282714844	-1028.890502929688	-322.1811828613282	233.4583892822266	-998.4644775390627	-384.2846984863282	109.2638320922852	-1054.108642578125	-353.8936462402344	119.826286315918	-974.910095214844	-441.500946044922	97.15589141845706	-1007.179870605469	-239.6074829101563	53.7449188232422	-994.2308349609377	-234.9623718261719	50.0687599182129	-1032.890014648438	-259.7513732910157	43.98204040527344	-1082.941528320313	-337.5012512207032	705.4199829101564	-753.0614624023439	-304.6552124023438	647.5986938476564	-741.9149780273439	-269.9768981933594	647.9237060546876	-743.1447143554689	-332.6906738281251	571.4118041992189	-758.1928100585939	-338.4963684082032	510.9854736328126	-761.6638183593751	-288.5448913574219	497.2786560058595	-869.3064575195315	-296.6054382324219	379.3701171875001	-765.2291870117189	-367.6512451171876	298.4440612792969	-749.0010375976564	-320.7079772949219	296.3261718750001	-749.6219482421876	-299.0026855468751	249.6814727783204	-776.286804199219	-354.5066223144532	105.9336090087891	-747.4003295898439	-327.2463073730469	118.9808807373047	-827.2642211914065	-408.9519653320314	89.89736175537111	-790.327331542969	-209.6481323242188	52.57793045043947	-815.3206787109377	-202.9589385986329	50.66595458984376	-769.8597412109377	-230.2975616455079	33.67748260498048	-715.5318603515626	
1384	6.915	-166.4078521728516	1619.165771484375	-863.388122558594	-273.3468627929688	1577.826293945313	-1006.716552734375	-309.4477844238282	1568.01025390625	-859.6069335937502	-352.9364013671876	1449.255004882813	-942.8514404296877	-378.9232177734376	1127.626586914063	-941.2791137695315	-220.2324371337891	1368.589233398438	-923.221618652344	-276.5660095214844	1386.765991210938	-1109.32470703125	-303.6765441894532	1195.666748046875	-1183.723022460938	-273.4521484375001	1162.735961914063	-1161.590698242188	-308.8112182617188	1128.5419921875	-1198.634033203125	-326.3708801269532	1072.902587890625	-1207.201416015625	-368.1890563964844	1058.72119140625	-1136.408935546875	-219.1194000244141	857.5130615234377	-1131.90185546875	-245.3899688720704	838.4848632812502	-1189.031982421875	-190.3381500244141	773.8027343750002	-1124.479614257813	-313.9645690917969	1386.407348632813	-763.0660400390626	-391.6898193359376	1205.775756835938	-693.3067626953126	-353.2938232421876	1177.606567382813	-677.9767456054689	-398.8684692382814	1136.801391601563	-679.8463745117189	-391.2334899902345	1068.007080078125	-664.9373168945314	-388.3655395507814	1049.733276367188	-745.9663085937501	-223.9839477539063	881.8132934570315	-685.1430053710939	-269.3722229003907	861.5681762695315	-640.4062500000001	-180.4772033691407	819.4738769531252	-657.8047485351564	-200.1111755371094	947.0480957031252	-1023.669799804688	-222.8020324707032	947.4537353515627	-807.2151489257815	-377.0621337890626	1020.130065917969	-933.9088134765627	-382.2024841308594	991.8861083984377	-962.0166625976565	-388.0503540039064	990.9832763671877	-906.1956787109377	-290.5411987304688	796.2940063476565	-1096.11865234375	-273.2124938964844	714.3640136718751	-1090.3349609375	-225.0448150634766	712.0128173828126	-1075.679809570313	-310.6091918945313	666.2070922851564	-1081.530029296875	-335.8811950683594	506.8265380859376	-1057.486450195313	-302.9447021484376	495.7895812988282	-942.9862060546877	-310.5131835937501	360.3152160644532	-995.566345214844	-337.3576660156251	310.4016418457032	-1063.778076171875	-307.4512939453126	311.5121459960938	-1028.60986328125	-322.1865539550782	233.4742889404297	-998.291931152344	-384.4127807617189	109.3814315795899	-1054.086303710938	-353.8477783203126	119.8042144775391	-974.839538574219	-441.5361328125001	97.17724609375003	-1007.193664550781	-239.6327209472657	53.79381942749025	-994.1885375976565	-234.9228210449219	50.09268951416017	-1032.9013671875	-259.7545166015626	43.97266387939454	-1082.909790039063	-336.9080810546876	705.3516845703126	-752.3142089843751	-304.0454101562501	647.4797363281251	-741.1556396484376	-269.3681030273438	647.7972412109376	-742.5178222656251	-332.2632446289063	571.3713378906251	-757.5779418945314	-338.0314636230469	511.012176513672	-761.0953369140626	-288.5177307128907	497.2564086914064	-868.9046020507815	-296.2915039062501	379.3441772460938	-764.9174194335939	-367.4300537109376	298.3152465820313	-748.7351074218751	-320.4894714355469	296.2240600585938	-749.3947143554689	-298.7961730957032	249.5566101074219	-776.2225341796877	-354.5172729492188	105.9085769653321	-747.3843994140626	-327.3682250976563	118.9798278808594	-827.2872314453127	-408.9086914062501	89.89672088623048	-790.349792480469	-209.6646118164063	52.58900451660158	-815.3477172851565	-202.9641876220704	50.67404174804689	-769.8612060546877	-230.3460693359376	33.57675552368165	-715.4979858398439	
